<?xml version="1.0" standalone="no"?>
<!DOCTYPE svg PUBLIC "-//W3C//DTD SVG 20010904//EN"
 "http://www.w3.org/TR/2001/REC-SVG-20010904/DTD/svg10.dtd">
<svg version="1.0" xmlns="http://www.w3.org/2000/svg"
 width="863.000000pt" height="544.000000pt" viewBox="0 0 863.000000 544.000000"
 preserveAspectRatio="xMidYMid meet">

<g transform="translate(0.000000,544.000000) scale(0.100000,-0.100000)"
fill="#ffffff" stroke="none">
<path d="M90 4140 l0 -1240 225 0 225 0 0 515 0 515 530 0 530 0 0 195 0 195
-530 0 -530 0 0 335 0 335 580 0 580 0 0 195 0 195 -805 0 -805 0 0 -1240z"/>
<path d="M3940 4900 l0 -240 -135 0 -135 0 2 -172 3 -173 132 -3 132 -3 3
-472 3 -472 27 -77 c64 -189 192 -302 405 -359 62 -17 119 -22 276 -26 l197
-6 0 182 0 181 -154 0 c-173 0 -220 11 -273 62 -61 59 -63 75 -63 555 l0 433
240 0 240 0 0 175 0 175 -240 0 -240 0 -2 238 -3 237 -207 3 -208 2 0 -240z"/>
<path d="M2476 4675 c-334 -69 -522 -257 -551 -552 l-7 -73 200 0 199 0 7 48
c9 66 50 145 93 178 63 48 128 66 250 72 132 5 223 -16 286 -69 67 -56 107
-168 107 -306 l0 -51 -337 -4 c-307 -4 -345 -7 -418 -26 -117 -32 -211 -82
-274 -145 -66 -67 -96 -114 -120 -192 -78 -249 19 -509 227 -614 97 -49 178
-64 317 -58 155 6 240 33 443 138 l152 79 0 -100 0 -100 200 0 200 0 0 618 c0
504 -3 630 -15 687 -47 225 -214 390 -461 456 -103 28 -391 36 -498 14z m574
-1147 l0 -103 -163 -87 c-191 -102 -268 -128 -377 -128 -117 0 -164 25 -201
105 -47 102 -5 226 94 277 61 31 110 36 390 37 l257 1 0 -102z"/>
<path d="M5715 4680 c-98 -13 -185 -39 -270 -80 -206 -100 -331 -268 -371
-501 -22 -131 -16 -644 10 -734 67 -241 242 -400 514 -467 70 -17 118 -22 242
-22 279 -1 471 64 616 209 98 97 154 223 154 347 l0 48 -190 0 c-144 0 -191
-3 -194 -12 -2 -7 -9 -35 -15 -63 -17 -70 -55 -114 -135 -155 -65 -32 -75 -34
-193 -38 -147 -5 -226 11 -297 62 -92 65 -127 138 -134 279 l-5 97 583 0 582
0 -4 243 c-4 217 -7 249 -27 312 -85 261 -290 425 -590 470 -103 16 -180 17
-276 5z m237 -341 c166 -35 264 -155 276 -335 l5 -84 -392 0 -391 0 0 53 c1
192 109 332 283 366 62 13 159 13 219 0z"/>
<path d="M7583 4680 c-178 -25 -317 -86 -424 -187 -81 -77 -127 -148 -166
-258 l-28 -80 0 -370 c0 -360 1 -372 23 -445 32 -100 62 -157 121 -228 172
-207 537 -293 875 -207 136 34 225 83 316 175 115 114 167 241 173 417 l2 78
-195 0 -195 0 -6 -65 c-13 -124 -58 -193 -157 -242 -65 -32 -69 -33 -202 -33
-116 0 -141 3 -181 21 -66 31 -114 78 -146 142 l-28 57 0 320 0 320 33 68 c24
48 46 77 75 98 79 58 101 63 247 64 120 0 141 -3 186 -23 100 -45 162 -139
172 -259 l5 -63 200 0 200 0 -7 84 c-15 178 -70 311 -176 417 -97 97 -200 150
-365 185 -87 18 -269 26 -352 14z"/>
<path d="M4980 2140 l0 -340 60 0 60 0 0 340 0 340 -60 0 -60 0 0 -340z"/>
<path d="M5250 2345 l0 -65 -35 0 c-35 0 -35 0 -35 -45 0 -45 0 -45 34 -45
l35 0 3 -144 c3 -127 5 -148 24 -172 39 -53 68 -67 148 -72 l76 -5 0 52 0 51
-55 0 c-79 0 -86 15 -83 166 l3 119 63 3 62 3 0 44 0 45 -65 0 -65 0 0 65 0
65 -55 0 -55 0 0 -65z"/>
<path d="M5711 2280 c-64 -15 -117 -70 -128 -133 l-6 -37 55 0 c52 0 54 1 63
32 8 24 19 36 47 46 75 28 148 -7 148 -72 l0 -34 -107 -3 c-85 -3 -115 -8
-142 -24 -93 -55 -93 -196 0 -247 46 -26 128 -19 197 16 l52 26 0 -25 c0 -24
3 -25 55 -25 l55 0 0 168 c0 92 -5 184 -10 204 -13 44 -66 93 -117 107 -43 12
-112 13 -162 1z m179 -309 c0 -24 -8 -34 -47 -56 -87 -52 -163 -42 -163 21 0
48 31 64 125 64 l85 0 0 -29z"/>
<path d="M6225 2283 c-38 -9 -83 -53 -100 -96 -13 -35 -16 -71 -13 -170 3
-136 10 -155 72 -201 42 -32 136 -29 204 6 l52 27 0 -109 0 -110 55 0 55 0 0
325 0 325 -55 0 c-52 0 -55 -1 -55 -25 l0 -24 -62 29 c-59 28 -104 35 -153 23z
m168 -128 l47 -27 0 -88 0 -88 -47 -27 c-69 -39 -117 -44 -148 -15 -24 22 -25
30 -25 129 0 95 2 107 23 129 18 20 29 23 63 19 22 -2 62 -16 87 -32z"/>
<path d="M7307 2276 c-93 -34 -126 -99 -127 -240 0 -126 19 -173 88 -214 41
-23 57 -27 127 -26 63 0 89 5 123 22 46 24 82 73 82 110 0 20 -5 22 -49 22
-41 0 -51 -4 -56 -20 -13 -42 -103 -64 -158 -39 -29 13 -47 43 -50 84 l-2 30
158 3 157 3 0 72 c0 90 -26 141 -89 176 -53 29 -149 38 -204 17z m144 -91 c30
-16 49 -49 49 -86 0 -18 -8 -19 -111 -19 l-111 0 7 28 c20 81 92 115 166 77z"/>
<path d="M8191 2280 c-64 -15 -117 -70 -128 -133 l-6 -37 55 0 c52 0 54 1 63
32 8 24 19 36 47 46 75 28 148 -7 148 -72 l0 -34 -107 -3 c-85 -3 -115 -8
-142 -24 -93 -55 -93 -196 0 -247 46 -26 128 -19 197 16 l52 26 0 -25 c0 -24
3 -25 55 -25 l55 0 0 168 c0 92 -5 184 -10 204 -13 44 -66 93 -117 107 -43 12
-112 13 -162 1z m179 -309 c0 -24 -8 -34 -47 -56 -87 -52 -163 -42 -163 21 0
48 31 64 125 64 l85 0 0 -29z"/>
<path d="M6660 2086 c0 -184 1 -195 23 -227 49 -74 149 -88 241 -34 l46 27 0
-26 c0 -25 2 -26 55 -26 l55 0 0 240 0 240 -55 0 -55 0 0 -162 -1 -163 -47
-28 c-64 -40 -104 -45 -131 -18 -20 20 -21 31 -21 196 l0 175 -55 0 -55 0 0
-194z"/>
<path d="M7720 2040 l0 -240 55 0 55 0 0 153 c0 146 1 154 23 174 34 32 62 43
106 43 l41 0 0 56 0 57 -46 -6 c-26 -3 -61 -16 -82 -31 l-37 -26 -3 30 c-3 29
-5 30 -58 30 l-54 0 0 -240z"/>
<path d="M3280 1245 l0 -235 40 0 40 0 0 90 0 90 70 0 c88 0 140 24 164 74 22
46 20 114 -3 152 -31 50 -73 64 -200 64 l-111 0 0 -235z m230 145 c26 -26 26
-80 0 -108 -17 -18 -32 -22 -85 -22 l-65 0 0 75 0 75 65 0 c52 0 69 -4 85 -20z"/>
<path d="M4353 1465 c-36 -15 -48 -34 -58 -88 -6 -30 -11 -37 -31 -37 -20 0
-24 -5 -24 -30 0 -25 4 -30 25 -30 l25 0 0 -135 0 -135 40 0 40 0 0 135 0 135
45 0 c43 0 45 1 45 30 0 29 -2 30 -45 30 -41 0 -45 2 -45 24 0 28 33 56 67 56
19 0 23 5 23 30 0 28 -2 30 -37 30 -21 -1 -52 -7 -70 -15z"/>
<path d="M4810 1245 l0 -235 40 0 40 0 1 173 1 172 18 -55 c10 -30 35 -108 55
-172 l36 -118 39 0 38 0 37 118 c20 64 44 142 55 172 l18 55 1 -172 1 -173 40
0 40 0 0 235 0 235 -62 0 -63 0 -50 -170 c-27 -93 -53 -166 -56 -162 -4 4 -25
72 -48 152 -23 80 -44 153 -47 163 -4 14 -17 17 -70 17 l-64 0 0 -235z"/>
<path d="M5372 1471 c-8 -5 -12 -21 -10 -37 3 -26 7 -29 38 -29 29 0 36 4 38
23 6 41 -31 65 -66 43z"/>
<path d="M6600 1245 l0 -235 40 0 40 0 0 235 0 235 -40 0 -40 0 0 -235z"/>
<path d="M6940 1245 l0 -235 40 0 40 0 0 90 0 90 48 0 47 0 39 -90 40 -90 43
0 c24 0 43 2 43 5 0 3 -15 36 -34 73 -51 101 -52 109 -22 133 56 44 74 135 37
195 -31 51 -73 64 -205 64 l-116 0 0 -235z m246 140 c20 -27 17 -68 -7 -99
-19 -24 -27 -26 -90 -26 l-69 0 0 76 0 76 76 -4 c60 -3 79 -7 90 -23z"/>
<path d="M8060 1245 l0 -235 40 0 40 0 0 235 0 235 -40 0 -40 0 0 -235z"/>
<path d="M3974 1331 c-53 -24 -74 -68 -74 -156 0 -88 21 -132 74 -156 81 -37
178 -12 209 54 11 22 17 60 17 102 0 88 -21 132 -74 156 -52 24 -100 24 -152
0z m134 -77 c32 -36 31 -122 -1 -160 -33 -37 -81 -37 -114 0 -18 21 -23 39
-23 79 0 104 76 148 138 81z"/>
<path d="M6304 1331 c-55 -25 -74 -67 -74 -163 0 -113 47 -168 144 -168 74 0
146 50 146 100 0 20 -59 10 -84 -15 -33 -33 -79 -33 -111 0 -14 13 -25 33 -25
45 0 19 6 20 110 20 l110 0 0 53 c0 119 -102 180 -216 128z m121 -66 c14 -13
25 -33 25 -45 0 -18 -6 -20 -76 -20 l-76 0 6 28 c15 60 79 80 121 37z"/>
<path d="M7404 1331 c-55 -25 -74 -67 -74 -163 0 -113 47 -168 144 -168 74 0
146 50 146 100 0 20 -59 10 -84 -15 -33 -33 -79 -33 -111 0 -14 13 -25 33 -25
45 0 19 6 20 110 20 l110 0 0 53 c0 119 -102 180 -216 128z m121 -66 c14 -13
25 -33 25 -45 0 -18 -6 -20 -76 -20 l-76 0 6 28 c15 60 79 80 121 37z"/>
<path d="M7765 1337 c-38 -18 -60 -44 -69 -79 -6 -27 -5 -28 34 -28 28 0 40 4
40 14 0 19 39 46 66 46 29 0 62 -29 70 -62 l6 -28 -66 0 c-111 0 -156 -30
-156 -104 0 -48 8 -65 41 -81 38 -20 75 -18 128 5 52 24 51 24 51 5 0 -10 11
-15 35 -15 l35 0 0 123 c0 132 -7 157 -52 190 -34 26 -121 33 -163 14z m140
-212 c0 -22 -66 -65 -100 -65 -26 0 -45 18 -45 41 0 30 40 50 95 47 42 -3 50
-6 50 -23z"/>
<path d="M8274 1331 c-55 -25 -74 -67 -74 -163 0 -113 47 -168 144 -168 74 0
146 50 146 100 0 20 -59 10 -84 -15 -33 -33 -79 -33 -111 0 -14 13 -25 33 -25
45 0 19 6 20 110 20 l110 0 0 53 c0 119 -102 180 -216 128z m121 -66 c14 -13
25 -33 25 -45 0 -18 -6 -20 -76 -20 l-76 0 6 28 c15 60 79 80 121 37z"/>
<path d="M3670 1175 l0 -165 40 0 40 0 0 109 c0 122 6 134 77 147 30 6 33 10
33 40 0 29 -4 34 -22 34 -13 0 -38 -9 -56 -20 -40 -25 -42 -25 -42 0 0 16 -7
20 -35 20 l-35 0 0 -165z"/>
<path d="M5360 1175 l0 -165 40 0 40 0 0 165 0 165 -40 0 -40 0 0 -165z"/>
<path d="M5580 1329 c-14 -5 -33 -20 -42 -32 -19 -24 -23 -83 -9 -106 7 -10 3
-23 -10 -39 -22 -29 -24 -60 -5 -87 7 -11 16 -41 20 -66 7 -50 32 -80 79 -98
71 -27 188 4 207 54 16 43 12 74 -15 100 -22 23 -31 25 -123 25 -98 0 -126 9
-115 36 4 10 25 14 75 14 114 0 170 43 154 120 -5 25 -2 30 14 30 16 0 20 7
20 30 l0 30 -112 -1 c-62 0 -124 -5 -138 -10z m138 -61 c16 -16 15 -53 -1 -67
-44 -36 -127 -15 -127 32 0 34 19 47 70 47 25 0 51 -5 58 -12z m30 -250 c32
-32 -2 -68 -65 -68 -53 0 -83 21 -83 57 0 22 3 23 68 23 40 0 73 -5 80 -12z"/>
<path d="M5880 1215 c0 -137 9 -169 51 -191 38 -19 73 -18 119 6 l40 20 0 -20
c0 -16 7 -20 35 -20 l35 0 0 165 0 165 -35 0 -35 0 0 -113 0 -113 -35 -17
c-83 -39 -95 -23 -95 125 l0 118 -40 0 -40 0 0 -125z"/>
<path d="M4474 1055 c-8 -31 10 -55 41 -55 29 0 47 22 43 52 -2 19 -10 24 -40
26 -33 3 -38 0 -44 -23z"/>
</g>
</svg>
