<?xml version="1.0" standalone="no"?>
<!DOCTYPE svg PUBLIC "-//W3C//DTD SVG 20010904//EN"
 "http://www.w3.org/TR/2001/REC-SVG-20010904/DTD/svg10.dtd">
<svg version="1.0" xmlns="http://www.w3.org/2000/svg"
 width="863.000000pt" height="544.000000pt" viewBox="0 0 863.000000 544.000000"
 preserveAspectRatio="xMidYMid meet">

<g transform="translate(0.000000,544.000000) scale(0.100000,-0.100000)"
fill="#000000" stroke="none">
<path d="M100 4145 l0 -1235 220 0 220 0 0 510 0 510 530 0 530 0 0 195 0 195
-530 0 -530 0 0 335 0 335 580 0 580 0 0 195 0 195 -800 0 -800 0 0 -1235z"/>
<path d="M3940 4895 l0 -235 -130 0 -130 0 0 -170 0 -170 129 0 129 0 4 -467
c5 -497 6 -514 57 -627 48 -107 161 -214 277 -260 107 -43 198 -56 394 -56
l180 0 0 170 0 170 -133 0 c-210 0 -291 30 -338 127 -24 48 -24 49 -27 496
l-3 447 245 0 246 0 0 170 0 170 -245 0 -245 0 0 235 0 235 -205 0 -205 0 0
-235z"/>
<path d="M2532 4680 c-242 -34 -449 -157 -535 -317 -35 -65 -67 -190 -67 -260
l0 -53 194 0 193 0 6 54 c14 136 110 221 280 247 143 22 278 -7 357 -78 70
-63 93 -123 98 -255 l4 -107 -353 -3 c-332 -4 -359 -6 -429 -27 -106 -32 -186
-77 -251 -141 -94 -93 -139 -209 -139 -360 0 -234 130 -408 355 -476 45 -14
90 -18 180 -17 166 1 240 22 450 128 94 47 173 85 178 85 4 0 7 -43 7 -95 l0
-95 195 0 196 0 -3 628 c-3 562 -6 633 -21 687 -70 237 -217 374 -471 436 -93
23 -324 33 -424 19z m526 -1152 l-3 -103 -159 -87 c-88 -47 -189 -96 -225
-108 -125 -41 -246 -37 -313 11 -93 66 -91 264 3 332 15 11 51 28 80 38 48 16
88 18 337 19 l283 0 -3 -102z"/>
<path d="M5650 4666 c-168 -36 -278 -93 -385 -201 -86 -86 -128 -154 -166
-270 -22 -66 -23 -88 -27 -400 -4 -375 2 -423 64 -553 28 -58 55 -95 113 -152
87 -87 170 -134 306 -176 86 -27 100 -28 290 -28 228 0 294 13 440 83 193 92
296 235 320 439 l7 62 -191 0 -191 0 -5 -27 c-27 -134 -94 -197 -242 -228
-183 -39 -365 3 -454 103 -51 58 -76 128 -84 240 l-8 92 588 0 587 0 -5 233
c-3 177 -9 246 -22 292 -70 245 -229 401 -485 475 -97 28 -350 37 -450 16z
m337 -331 c149 -44 230 -157 249 -347 l6 -68 -402 0 -402 0 7 68 c24 246 149
361 396 362 57 0 116 -6 146 -15z"/>
<path d="M7495 4660 c-203 -43 -378 -169 -457 -330 -68 -139 -73 -173 -73
-555 0 -325 1 -343 23 -420 35 -119 76 -190 162 -275 84 -85 171 -133 305
-172 71 -20 102 -23 265 -23 148 0 199 4 255 19 95 25 219 84 282 134 120 96
200 262 210 438 l6 94 -190 0 -190 0 -7 -52 c-22 -170 -106 -260 -271 -289
-82 -14 -191 -7 -260 17 -70 25 -154 111 -180 184 -16 47 -20 92 -23 315 -2
173 0 280 8 320 36 182 153 270 360 269 218 0 332 -87 362 -277 l13 -77 187 0
188 0 0 68 c-1 262 -149 478 -392 572 -158 61 -402 78 -583 40z"/>
<path d="M4980 2140 l0 -340 60 0 60 0 0 340 0 340 -60 0 -60 0 0 -340z"/>
<path d="M5250 2345 l0 -65 -35 0 c-35 0 -35 0 -35 -45 0 -45 0 -45 34 -45
l34 0 4 -144 c3 -128 5 -148 24 -173 33 -45 79 -65 155 -71 l69 -5 0 52 0 51
-54 0 c-79 0 -86 13 -86 167 l0 123 65 0 65 0 0 45 0 45 -65 0 -65 0 0 65 0
65 -55 0 -55 0 0 -65z"/>
<path d="M5710 2278 c-39 -11 -95 -50 -109 -76 -5 -10 -12 -34 -16 -55 l-7
-37 51 0 c49 0 53 2 63 30 18 54 97 76 157 45 32 -16 41 -33 41 -75 l0 -28
-102 -4 c-131 -4 -174 -24 -202 -90 -23 -55 -16 -104 20 -147 49 -58 126 -64
228 -18 l56 26 0 -25 c0 -23 3 -24 55 -24 l55 0 0 170 c0 181 -8 220 -52 268
-41 43 -157 63 -238 40z m180 -308 c0 -24 -8 -34 -46 -56 -89 -52 -164 -40
-164 26 0 46 31 60 127 60 l83 0 0 -30z"/>
<path d="M6200 2268 c-71 -36 -90 -84 -90 -224 0 -61 5 -126 11 -145 17 -49
54 -85 104 -99 53 -15 101 -7 167 26 l48 24 0 -110 0 -110 55 0 55 0 0 325 0
325 -55 0 c-52 0 -55 -1 -55 -25 0 -14 -2 -25 -4 -25 -2 0 -24 11 -49 25 -66
38 -131 42 -187 13z m186 -109 l54 -30 0 -89 0 -88 -47 -27 c-64 -38 -124 -44
-152 -16 -19 19 -21 32 -21 131 0 97 2 112 20 130 30 30 83 26 146 -11z"/>
<path d="M7317 2278 c-52 -14 -112 -73 -126 -123 -14 -50 -14 -188 -1 -234 32
-113 190 -162 325 -102 47 21 85 69 85 109 0 20 -5 22 -48 22 -42 0 -50 -3
-60 -25 -13 -29 -48 -45 -98 -45 -52 0 -90 24 -104 65 -21 64 -18 65 155 65
l155 0 0 67 c0 89 -26 144 -86 179 -51 30 -137 39 -197 22z m160 -112 c13 -15
23 -40 23 -57 l0 -29 -111 0 -111 0 7 33 c4 17 20 45 37 61 28 25 36 28 81 23
39 -3 56 -11 74 -31z"/>
<path d="M8190 2278 c-39 -11 -95 -50 -109 -76 -5 -10 -12 -34 -16 -55 l-7
-37 51 0 c49 0 53 2 63 30 18 54 97 76 157 45 32 -16 41 -33 41 -75 l0 -28
-102 -4 c-131 -4 -174 -24 -202 -90 -23 -55 -16 -104 20 -147 49 -58 126 -64
228 -18 l56 26 0 -25 c0 -23 3 -24 55 -24 l55 0 0 170 c0 181 -8 220 -52 268
-41 43 -157 63 -238 40z m180 -308 c0 -24 -8 -34 -46 -56 -89 -52 -164 -40
-164 26 0 46 31 60 127 60 l83 0 0 -30z"/>
<path d="M6660 2093 c0 -206 7 -236 61 -276 47 -34 109 -34 183 1 l66 31 0
-25 c0 -23 3 -24 55 -24 l55 0 0 240 0 240 -55 0 -55 0 0 -163 0 -162 -54 -33
c-64 -38 -108 -42 -130 -10 -13 18 -16 55 -16 195 l0 173 -55 0 -55 0 0 -187z"/>
<path d="M7720 2040 l0 -240 55 0 55 0 0 154 0 154 31 26 c31 26 50 33 104 38
29 3 30 5 33 56 3 52 3 52 -27 52 -41 0 -81 -17 -113 -48 l-28 -26 0 37 0 37
-55 0 -55 0 0 -240z"/>
<path d="M3280 1246 l0 -236 40 0 40 0 0 90 0 90 68 0 c110 0 170 44 179 131
5 52 -18 102 -60 133 -24 18 -46 22 -148 25 l-119 3 0 -236z m232 147 c23 -21
24 -89 1 -115 -13 -14 -31 -18 -85 -18 l-68 0 0 75 0 75 67 0 c48 0 72 -5 85
-17z"/>
<path d="M4373 1469 c-42 -12 -73 -53 -73 -95 0 -30 -3 -34 -25 -34 -21 0 -25
-5 -25 -30 0 -25 4 -30 25 -30 l25 0 0 -135 0 -135 35 0 35 0 0 135 0 135 45
0 c43 0 45 1 45 30 0 29 -2 30 -45 30 -43 0 -45 1 -45 30 0 32 22 50 64 50 22
0 26 4 26 30 0 26 -3 30 -27 29 -16 0 -42 -5 -60 -10z"/>
<path d="M4820 1245 l0 -235 35 0 35 0 2 178 3 177 55 -177 55 -178 35 0 35 0
57 183 57 182 0 -182 1 -183 40 0 40 0 0 235 0 235 -60 0 -59 0 -30 -97 c-16
-54 -40 -133 -52 -175 -13 -42 -25 -75 -29 -73 -3 2 -28 80 -55 174 l-50 171
-57 0 -58 0 0 -235z"/>
<path d="M5376 1467 c-26 -19 -18 -61 12 -65 46 -7 72 47 33 68 -25 13 -24 13
-45 -3z"/>
<path d="M6600 1245 l0 -235 35 0 35 0 0 235 0 235 -35 0 -35 0 0 -235z"/>
<path d="M6940 1245 l0 -235 40 0 40 0 0 90 0 90 48 0 49 0 41 -90 41 -90 40
0 c23 0 41 2 41 5 0 3 -21 47 -46 97 -35 69 -43 93 -33 97 25 8 67 61 74 92
16 73 -26 150 -93 169 -20 5 -83 10 -139 10 l-103 0 0 -235z m242 148 c22 -20
24 -80 2 -111 -13 -19 -24 -22 -90 -22 l-74 0 0 75 0 75 72 0 c52 0 76 -4 90
-17z"/>
<path d="M8060 1245 l0 -235 35 0 35 0 0 235 0 235 -35 0 -35 0 0 -235z"/>
<path d="M4000 1339 c-75 -22 -107 -86 -97 -193 9 -94 57 -140 147 -140 54 0
96 19 124 57 28 38 30 178 3 220 -32 49 -112 75 -177 56z m105 -74 c22 -21 25
-33 25 -90 0 -57 -3 -69 -25 -90 -15 -16 -36 -25 -55 -25 -19 0 -40 9 -55 25
-22 21 -25 33 -25 90 0 57 3 69 25 90 15 16 36 25 55 25 19 0 40 -9 55 -25z"/>
<path d="M6332 1340 c-18 -4 -44 -18 -58 -31 -65 -61 -56 -240 14 -281 85 -49
204 -18 227 60 6 20 3 22 -29 22 -20 0 -36 -4 -36 -9 0 -22 -34 -41 -71 -41
-46 0 -79 27 -79 65 l0 25 110 0 110 0 0 43 c0 106 -85 173 -188 147z m98 -70
c11 -11 20 -31 20 -45 0 -24 -2 -25 -75 -25 -70 0 -75 1 -75 22 0 58 88 90
130 48z"/>
<path d="M7432 1340 c-18 -4 -44 -18 -58 -31 -65 -61 -56 -240 14 -281 85 -49
204 -18 227 60 6 20 3 22 -29 22 -20 0 -36 -4 -36 -9 0 -22 -34 -41 -71 -41
-46 0 -79 27 -79 65 l0 25 110 0 110 0 0 43 c0 106 -85 173 -188 147z m98 -70
c11 -11 20 -31 20 -45 0 -24 -2 -25 -75 -25 -70 0 -75 1 -75 22 0 58 88 90
130 48z"/>
<path d="M7795 1341 c-64 -16 -95 -45 -95 -90 0 -17 6 -21 30 -21 17 0 30 5
30 10 0 6 9 19 20 30 43 43 130 13 130 -44 0 -22 -4 -24 -72 -28 -40 -3 -85
-11 -99 -18 -52 -24 -65 -100 -26 -146 20 -22 32 -27 69 -27 25 1 59 8 76 17
39 20 52 20 52 1 0 -10 11 -15 35 -15 l35 0 -1 113 c0 61 -5 128 -12 147 -19
54 -100 88 -172 71z m115 -216 c0 -31 -66 -68 -113 -63 -27 3 -33 8 -35 33 -5
40 19 55 90 55 55 0 58 -1 58 -25z"/>
<path d="M8302 1340 c-18 -4 -44 -18 -58 -31 -65 -61 -56 -240 14 -281 85 -49
204 -18 227 60 6 20 3 22 -29 22 -20 0 -36 -4 -36 -9 0 -22 -34 -41 -71 -41
-46 0 -79 27 -79 65 l0 25 110 0 110 0 0 43 c0 106 -85 173 -188 147z m98 -70
c11 -11 20 -31 20 -45 0 -24 -2 -25 -75 -25 -70 0 -75 1 -75 22 0 58 88 90
130 48z"/>
<path d="M3670 1175 l0 -165 35 0 35 0 0 104 c0 104 0 104 31 130 18 15 43 26
60 26 27 0 29 3 29 36 0 35 -1 35 -32 29 -18 -4 -42 -16 -54 -26 -27 -25 -34
-24 -34 6 0 22 -4 25 -35 25 l-35 0 0 -165z"/>
<path d="M5360 1175 l0 -165 35 0 35 0 0 165 0 165 -35 0 -35 0 0 -165z"/>
<path d="M5596 1330 c-61 -19 -89 -75 -66 -131 11 -25 10 -32 -3 -42 -27 -21
-30 -60 -8 -89 14 -17 21 -41 21 -68 0 -51 30 -84 90 -100 56 -15 139 2 171
36 31 33 31 86 1 117 -20 19 -36 23 -130 27 -99 5 -107 7 -107 25 0 18 9 21
83 26 60 5 91 12 110 26 31 23 44 65 32 99 -8 21 -7 24 15 24 21 0 25 5 25 30
l0 30 -102 -1 c-57 0 -116 -5 -132 -9z m131 -66 c18 -25 16 -41 -7 -64 -22
-22 -78 -27 -111 -10 -29 16 -26 77 4 90 32 14 99 4 114 -16z m28 -269 c0 -37
-35 -58 -88 -51 -49 5 -67 21 -67 58 l0 29 78 -3 77 -3 0 -30z"/>
<path d="M5880 1225 c0 -164 22 -208 104 -208 24 0 53 7 67 16 31 22 39 21 39
-3 0 -16 7 -20 35 -20 l35 0 0 165 0 165 -35 0 -35 0 0 -115 0 -114 -30 -16
c-41 -21 -87 -19 -100 4 -5 11 -10 69 -10 130 l0 111 -35 0 -35 0 0 -115z"/>
<path d="M4487 1073 c-4 -3 -7 -19 -7 -34 0 -28 27 -43 56 -32 19 7 28 42 14
58 -13 15 -51 20 -63 8z"/>
</g>
</svg>
